<?xml version="1.0" encoding="UTF-8" standalone="no"?>
<!-- Created with Inkscape (http://www.inkscape.org/) -->

<svg width="210mm" height="297mm" viewBox="0 0 744.09448 1052.3622" id="svg2" version="1.1" inkscape:version="1.2.1 (9c6d41e410, 2022-07-14)" sodipodi:docname="template.svg" xml:space="preserve"
  xmlns:inkscape="http://www.inkscape.org/namespaces/inkscape"
  xmlns:sodipodi="http://sodipodi.sourceforge.net/DTD/sodipodi-0.dtd"
  xmlns="http://www.w3.org/2000/svg"
  xmlns:svg="http://www.w3.org/2000/svg"
  xmlns:rdf="http://www.w3.org/1999/02/22-rdf-syntax-ns#"
  xmlns:cc="http://creativecommons.org/ns#"
  xmlns:dc="http://purl.org/dc/elements/1.1/">
  <defs id="defs4" />
  <sodipodi:namedview id="base" pagecolor="#ffffff" bordercolor="#666666" borderopacity="1.0" inkscape:pageopacity="0.0" inkscape:pageshadow="2" inkscape:zoom="0.7" inkscape:cx="0.71428571" inkscape:cy="581.42857" inkscape:document-units="px" inkscape:current-layer="layer1" showgrid="false" inkscape:window-width="2560" inkscape:window-height="1369" inkscape:window-x="1912" inkscape:window-y="-8" inkscape:window-maximized="1" inkscape:showpageshadow="2" inkscape:pagecheckerboard="0" inkscape:deskcolor="#d1d1d1" />
  <metadata id="metadata7">
    <rdf:RDF>
      <cc:Work rdf:about="">
        <dc:format>image/svg+xml</dc:format>
        <dc:type rdf:resource="http://purl.org/dc/dcmitype/StillImage" />
      </cc:Work>
    </rdf:RDF>
  </metadata>
  <g inkscape:label="Taso 1" inkscape:groupmode="layer" id="layer1" transform="translate(98.02875,-205.88662)">
    <rect style="fill:#222020;fill-opacity:1;stroke-width:1.37572" id="firstnumber" width="744.08984" height="524.28705" x="-98.028748" y="206.83366" />
    <path style="fill:#ffffff;fill-opacity:1;stroke-width:0.334184" d="m 216.37637,294.12473 c -1.71677,-0.33571 -3.79078,-1.60821 -4.58181,-2.81112 -0.30359,-0.46167 -0.62876,-1.51818 -0.72261,-2.3478 -0.14343,-1.26794 0.0275,-1.90772 1.0718,-4.01326 2.31469,-4.66657 8.56537,-9.96603 19.84213,-16.82255 1.32775,-0.80728 2.37459,-1.50714 2.32635,-1.55522 -0.0482,-0.0481 -1.18669,0.28304 -2.52986,0.73585 -2.78408,0.93853 -5.01637,1.04305 -7.04501,0.32989 -1.99,-0.69958 -3.19785,-1.64498 -3.84931,-3.0129 l -0.56403,-1.18432 -2.07184,1.77332 c -6.27296,5.36909 -11.75393,8.7604 -15.58094,9.64061 -2.12505,0.48875 -4.85279,0.0724 -10.32474,-1.57619 -9.69069,-2.91949 -16.1556,-6.29647 -17.77155,-9.28306 -0.95214,-1.75971 -0.73743,-7.66467 0.40755,-11.20886 4.20755,-13.02418 16.83347,-23.93111 31.05641,-26.82809 4.97246,-1.01282 7.98199,-0.59803 10.35683,1.42743 2.4126,2.05767 3.25722,5.13602 2.08471,7.59801 -0.6639,1.39404 -3.04109,3.47707 -5.34594,4.68443 l -1.70666,0.894 -3.77433,-2.96062 -3.77433,-2.96062 -2.05172,1.06121 c -7.91112,4.09186 -14.6062,14.35825 -14.6062,22.39748 0,1.80234 0.15282,2.42836 0.83809,3.43319 1.68159,2.46577 8.02938,6.17784 11.97423,7.0023 1.7322,0.36202 2.04522,0.33471 3.3386,-0.29141 0.78497,-0.38 4.48591,-3.0001 8.22431,-5.82244 3.73841,-2.82234 7.48525,-5.60841 8.32634,-6.19128 1.1617,-0.80506 1.70846,-1.49916 2.27497,-2.88799 1.50144,-3.68091 3.78226,-6.61239 6.58635,-8.46521 l 1.22106,-0.80683 2.96377,2.07344 c 1.63006,1.14041 3.08922,2.18335 3.24258,2.31765 0.15335,0.13431 -0.28406,0.97482 -0.97201,1.86779 -2.88569,3.74569 -5.01201,10.60936 -3.85224,12.43484 0.49434,0.77807 2.0899,-0.12193 4.28864,-2.41913 2.36469,-2.47056 4.38611,-5.27004 7.57655,-10.49274 3.1909,-5.22347 3.26344,-5.3152 4.66496,-5.89867 3.29624,-1.37231 6.14248,0.23986 5.43585,3.07898 -0.12558,0.50454 -1.36817,3.36072 -2.76132,6.34708 -1.39315,2.98636 -2.46663,5.49587 -2.38551,5.5767 0.0811,0.0808 1.45015,-0.8976 3.0423,-2.17429 2.65475,-2.12879 3.00241,-2.54969 4.19292,-5.07633 2.44419,-5.18734 7.33661,-9.8302 13.69566,-12.99699 2.96722,-1.47768 3.73715,-1.71849 5.94573,-1.85973 2.86315,-0.18308 4.82987,0.37128 6.60889,1.86283 2.26592,1.89979 2.99181,5.97224 1.52387,8.54938 -0.7206,1.26511 -4.60796,4.85847 -5.25599,4.85847 -0.17385,0 -1.25212,-1.23843 -2.39617,-2.75205 -1.14404,-1.51363 -2.13195,-2.81648 -2.19535,-2.89524 -0.26948,-0.33468 -2.45089,1.02673 -4.20571,2.62477 -2.63834,2.40261 -3.94214,5.0636 -3.91785,7.99613 0.01,1.25795 0.269,2.84055 0.60445,3.69951 0.54833,1.40405 0.66138,1.49693 1.74833,1.43633 1.71589,-0.0956 6.7788,-1.86972 11.79265,-4.13214 7.29253,-3.29067 7.57345,-3.48493 8.40998,-5.81552 0.88182,-2.4568 4.04997,-8.47193 5.93654,-11.27121 4.11361,-6.10377 13.04852,-16.74175 16.47598,-19.61643 3.73655,-3.13393 9.25745,-5.63847 12.41643,-5.6327 2.05056,0.004 3.60874,0.70281 5.20397,2.33468 1.88564,1.92893 4.35439,6.67589 4.34287,8.35053 -0.02,2.9094 -3.05985,7.91444 -7.85499,12.93314 -5.65246,5.91598 -16.37544,13.75278 -24.11865,17.6269 l -3.90091,1.95172 0.17996,1.81507 c 0.24959,2.51727 1.04731,3.49527 2.95397,3.62159 1.27537,0.0846 2.09667,-0.20137 5.49029,-1.91102 5.29668,-2.66838 7.1067,-3.85024 7.78173,-5.08115 2.60591,-4.75192 7.83786,-10.41904 10.58355,-11.46386 1.52225,-0.57927 1.58591,-0.57764 2.44658,0.0626 1.62257,1.20707 2.73583,2.92928 3.30807,5.11756 l 0.567,2.16828 -2.35133,2.33848 c -4.43046,4.40622 -8.7309,12.50592 -6.63986,12.50592 1.08995,0 7.89931,-3.11698 14.44591,-6.61257 l 3.72035,-1.9865 1.18854,1.7584 1.18852,1.75841 -1.22622,1.16775 c -3.50355,3.3365 -10.85259,8.60188 -14.78851,10.59559 -3.32503,1.68426 -4.49535,1.58275 -8.37804,-0.7266 -3.53523,-2.10271 -6.25681,-4.33471 -6.6992,-5.49412 l -0.29263,-0.76688 -1.77108,1.18984 c -2.99894,2.01474 -6.27333,3.49965 -8.14047,3.69167 -1.51395,0.15568 -2.03746,0.0344 -3.88177,-0.89945 -4.38784,-2.22173 -10.67301,-7.21762 -10.67301,-8.48367 0,-0.29105 -0.15672,-0.52919 -0.34827,-0.52919 -0.19153,0 -3.09971,1.39625 -6.46261,3.10277 -9.18,4.65843 -11.45647,5.16924 -15.52776,3.48421 -3.632,-1.50324 -8.32406,-5.00789 -8.86353,-6.62048 -0.13032,-0.38956 -2.66018,1.27983 -8.39197,5.53761 -1.00195,0.74428 -1.99965,2.16352 -3.89311,5.53803 -9.37705,16.71159 -16.1444,22.10576 -25.45017,20.28602 z m 8.00042,-6.97211 c 2.59666,-2.0492 7.56217,-8.00963 9.56446,-11.48083 1.20214,-2.08408 0.81655,-1.86659 -3.64778,2.05751 -4.84676,4.26025 -9.59352,9.63979 -9.59352,10.87241 0,0.50943 0.10212,0.51425 1.20129,0.0565 0.6607,-0.27507 1.7747,-0.95264 2.47555,-1.50574 z m 78.95486,-38.68953 c 5.37505,-2.95248 12.04156,-8.8755 17.39962,-15.45908 5.02929,-6.17961 7.0436,-9.57008 5.68568,-9.57008 -1.31543,0 -8.16729,5.59807 -13.33101,10.89162 -4.54128,4.65547 -12.37196,14.09083 -12.37196,14.90726 0,0.44396 0.87836,0.18567 2.61767,-0.76972 z m 29.85665,-3.32471 c -2.93901,-0.89401 -5.49341,-3.13429 -5.87309,-5.15087 -0.23569,-1.25179 0.64889,-3.69193 1.6313,-4.5 0.59323,-0.48793 3.5344,-0.29492 5.22437,0.34288 2.1464,0.81005 3.68508,3.372 3.69707,6.15574 0.0129,2.98436 -1.61866,4.08337 -4.67965,3.15225 z" id="path419" />
    <path style="fill:#ffffff;fill-opacity:1;stroke-width:0.14955" d="m -66.828566,264.98663 -2.974628,-5.65472 -0.950119,-1.79138 h -1.792322 -1.792323 l -0.03824,13.39917 -0.03823,13.39915 -9.1008,-0.0385 -9.1008,-0.0385 5.99e-4,-9.18079 c 1.99e-4,-5.04945 0.0172,-21.4594 0.03746,-36.46656 l 0.03692,-27.28573 1.8353,0.042 1.835307,0.042 0.03777,34.52129 0.03777,34.52128 h 5.243403 5.243395 v -13.28602 -13.28604 l 1.610576,-3.9e-4 c 0.885809,-1.6e-4 3.067285,-0.0442 4.847724,-0.0978 l 3.23715,-0.0974 0.954871,1.73986 c 0.525173,0.95692 1.03273,1.74018 1.03273,1.74018 2.37858,4.26699 2.161349,4.18643 4.221389,7.98624 1.113613,2.05262 2.292939,4.23586 2.620723,4.85164 0.327775,0.61578 1.732326,3.21888 3.121217,5.78466 l 2.525248,4.66503 h 5.978561 5.978564 l -0.445166,-0.78373 c -1.030044,-1.81342 -10.967488,-20.56729 -11.009937,-20.77785 -0.02955,-0.14663 2.797471,-1.39693 3.20269,-1.41646 0.129841,-0.006 0.353353,0.23847 0.500979,0.54853 0.265062,0.5567 2.315024,4.37155 4.95347,9.21811 0.759854,1.39579 1.719806,3.17597 2.133224,3.95596 1.021568,1.92738 4.071213,7.60857 5.645912,10.51777 0.709115,1.31005 1.289301,2.43572 1.289301,2.50149 0,0.0658 -4.633538,0.10225 -10.296752,0.0812 l -10.296763,-0.0384 -0.764427,-1.41816 c -0.980571,-1.81918 -7.083693,-13.22753 -8.044629,-15.03756 -0.402464,-0.75808 -0.777162,-1.59203 -0.777162,-1.59203 z m 15.038611,12.94418 c 0,-0.0747 -0.259151,-0.59538 -0.575889,-1.15693 -0.316737,-0.56156 -0.933156,-1.69279 -1.369808,-2.51383 -0.436661,-0.82105 -0.843408,-1.55999 -0.903895,-1.6421 -0.06049,-0.0821 -1.441625,-2.6348 -3.069204,-5.67269 -1.627586,-3.03786 -3.822304,-7.1048 -4.877155,-9.0376 -1.054845,-1.93281 -1.939458,-3.60508 -1.965809,-3.71615 -0.03669,-0.15457 0.567154,-0.28061 2.57396,-0.53727 2.947194,-0.37696 4.54799,-0.72574 6.517191,-1.41999 4.58776,-1.61742 8.17159,-4.6463 10.148276,-8.57686 2.19834,-4.37131 2.644581,-11.03306 1.064417,-15.89001 -2.040574,-6.2721 -7.120784,-10.30743 -14.949299,-11.87459 -3.005577,-0.60166 -4.470715,-0.67348 -13.739645,-0.67348 h -8.829828 l 0.01283,29.81893 c 0.0069,16.40041 0.0099,30.5075 0.0061,31.34907 l -0.0069,1.53012 h -1.872758 -1.87276 V 244.62771 211.338 h 9.62853 c 5.295692,0 10.706087,0.0711 12.0231,0.15821 9.398586,0.62102 16.114864,3.68296 20.283033,9.24702 3.858834,5.1511 5.096446,13.69919 3.069013,21.19742 -1.518769,5.61704 -5.10617,9.94925 -10.333284,12.47873 -1.864969,0.90248 -4.052914,1.65356 -6.279387,2.15558 -0.824018,0.18579 -1.519,0.35422 -1.544415,0.37428 -0.02541,0.0201 0.823656,1.63921 1.886822,3.59809 3.507936,6.46335 5.962803,11.00424 6.767653,12.51847 0.436407,0.82104 1.189451,2.21022 1.673421,3.08708 0.483968,0.87685 0.879944,1.66618 0.879944,1.75405 0,0.10624 -0.728795,0.15979 -2.172401,0.15979 -1.205964,0 -2.172395,-0.0604 -2.172395,-0.13591 z m -20.712702,-27.29628 -5.805544,-0.0391 v -1.86426 -1.86427 l 6.32992,-1.2e-4 c 3.481454,-6e-5 7.071525,-0.0686 7.977945,-0.1523 6.564561,-0.60615 10.512037,-2.64064 12.277277,-6.32759 0.764798,-1.59741 0.967454,-2.3578 1.134361,-4.25644 0.227005,-2.58221 -0.192891,-5.07878 -1.194587,-7.10266 -1.650545,-3.33486 -4.825656,-5.44714 -9.445371,-6.2836 -1.181599,-0.21397 -2.42826,-0.26003 -7.341209,-0.27125 l -5.917914,-0.0134 -0.04221,1.75404 -0.04221,1.75406 h 4.879825 c 6.638191,0 8.68142,0.26057 11.138482,1.42049 1.445901,0.68259 2.98453,2.18543 3.617658,3.53353 1.116536,2.3774 0.858514,5.71909 -0.612435,7.93183 -1.519797,2.28622 -4.83238,3.90215 -9.050952,4.41522 -0.781031,0.095 -3.980283,0.16417 -7.603393,0.16442 l -6.255007,4e-4 v -5.07557 -5.07556 h 1.947662 1.94767 v 3.22609 3.22609 l 4.831714,-0.0745 c 4.206351,-0.0648 5.025624,-0.1162 6.329918,-0.39706 3.449077,-0.74262 5.116841,-2.16188 5.284523,-4.49711 0.107888,-1.50245 -0.157328,-2.2876 -1.085893,-3.21461 -0.524659,-0.52378 -1.040622,-0.86503 -1.656318,-1.09544 -2.068277,-0.77404 -3.387822,-0.86677 -12.694526,-0.89213 l -4.908488,-0.0133 0.0393,-5.41145 0.0393,-5.41142 8.015396,6e-5 c 7.134808,6e-5 8.188048,0.0304 9.586904,0.27643 4.115429,0.72373 7.074235,2.04227 9.400988,4.18935 3.456201,3.18931 5.117868,8.20498 4.551015,13.73702 -0.871019,8.50054 -6.280339,12.68945 -17.471172,13.52946 -1.236021,0.0928 -2.281017,0.17884 -2.322222,0.19127 -0.04123,0.0125 -2.687405,0.005 -5.880454,-0.0164 z m -8.876867,-1.97622 c -0.0509,-0.0821 -0.02119,-0.14929 0.06609,-0.14929 0.08726,0 0.158663,0.0671 0.158663,0.14929 0,0.0821 -0.0297,0.14927 -0.06609,0.14927 -0.03631,0 -0.107737,-0.0671 -0.158656,-0.14927 z" id="path4097" sodipodi:nodetypes="ccccccccccsccccccccccscsscsscccssssssssccssccssssssssssssscsscccccssssssssssssssccccssssssscccsssssscccccccsssssscccssssssscsssss" />
    <text xml:space="preserve" style="font-style:normal;font-variant:normal;font-weight:normal;font-stretch:normal;font-size:34.6918px;font-family:'Cascadia Mono';-inkscape-font-specification:'Cascadia Mono';fill:#ffffff;fill-opacity:1;stroke-width:2.89098" x="467.87173" y="263.25949" id="competition_name_1" transform="scale(1.0018047,0.99819858)">
      <tspan sodipodi:role="line" id="tspan4752-9" style="font-style:normal;font-variant:normal;font-weight:normal;font-stretch:normal;font-family:'DejaVu Sans';-inkscape-font-specification:'DejaVu Sans';stroke-width:2.89098" x="467.87173" y="263.25949">XCM2023</tspan>
    </text>
    <text xml:space="preserve" style="font-style:normal;font-variant:normal;font-weight:normal;font-stretch:normal;font-size:420.165px;font-family:'Cascadia Mono';-inkscape-font-specification:'Cascadia Mono';fill:#ffffff;fill-opacity:1;stroke-width:35.014" x="276.62051" y="659.38403" id="firstnumber_id" transform="scale(0.99799525,1.0020088)">
      <tspan sodipodi:role="line" id="tspan8912" style="font-style:normal;font-variant:normal;font-weight:bold;font-stretch:normal;font-family:'DejaVu Sans Mono';-inkscape-font-specification:'DejaVu Sans Mono Bold';text-align:center;text-anchor:middle;fill:#ffffff;stroke-width:35.014" x="276.62051" y="659.38403">999</tspan>
    </text>
    <text xml:space="preserve" style="font-style:normal;font-variant:normal;font-weight:normal;font-stretch:normal;font-size:435.537px;font-family:'Cascadia Mono';-inkscape-font-specification:'Cascadia Mono';text-align:center;text-anchor:middle;fill:#ffffff;fill-opacity:1;stroke-width:36.295" x="274.01849" y="1192.4431" id="text8914-8">
      <tspan sodipodi:role="line" id="tspan8912-9" style="text-align:center;text-anchor:middle;fill:#ffffff;stroke-width:36.295" x="274.01849" y="1192.4431">888</tspan>
    </text>
    <g id="secondnumber" transform="matrix(1.25,0,0,-1.2455005,-98.026414,1396.5261)">
      <rect style="fill:#222020;fill-opacity:1;stroke-width:1.10256" id="rect706" width="595.27185" height="420.94489" x="4.4408921e-16" y="-531.96631" transform="scale(1,-1)" />
      <path style="fill:#ffffff;fill-opacity:1;stroke-width:0.26783" d="m 251.5241,461.88117 c -1.37342,0.26954 -3.03263,1.29122 -3.66545,2.25702 -0.24287,0.37067 -0.50301,1.21893 -0.57809,1.88503 -0.11474,1.01801 0.022,1.53169 0.85744,3.2222 1.85175,3.74675 6.8523,8.00163 15.8737,13.50666 1.0622,0.64816 1.89968,1.21007 1.86108,1.24867 -0.0386,0.0386 -0.94935,-0.22725 -2.02388,-0.5908 -2.22727,-0.75354 -4.0131,-0.83746 -5.63601,-0.26487 -1.592,0.56169 -2.55828,1.32074 -3.07945,2.41903 l -0.45122,0.95088 -1.65748,-1.42378 c -5.01836,-4.31079 -9.40314,-7.03364 -12.46475,-7.74035 -1.70004,-0.39242 -3.88223,-0.0581 -8.25979,1.2655 -7.75255,2.34403 -12.92448,5.05538 -14.21724,7.45328 -0.76171,1.41285 -0.58994,6.15389 0.32604,8.99948 3.36604,10.45699 13.46678,19.21405 24.84513,21.54001 3.97797,0.81318 6.38559,0.48015 8.28546,-1.14607 1.93008,-1.65208 2.60578,-4.12366 1.66777,-6.10037 -0.53112,-1.11926 -2.43287,-2.7917 -4.27675,-3.76108 l -1.36533,-0.71778 -3.01946,2.37705 -3.01947,2.37705 -1.64137,-0.85203 c -6.3289,-3.28532 -11.68496,-11.5281 -11.68496,-17.98272 0,-1.44708 0.12225,-1.9497 0.67047,-2.75647 1.34527,-1.97974 6.4235,-4.96013 9.57938,-5.62208 1.38576,-0.29066 1.63618,-0.26873 2.67088,0.23397 0.62798,0.3051 3.58873,2.40875 6.57945,4.67478 2.99073,2.26603 5.9882,4.50294 6.66107,4.97092 0.92936,0.64637 1.36677,1.20366 1.81998,2.31874 1.20115,2.95536 3.02581,5.30902 5.26908,6.79663 l 0.97685,0.6478 2.37101,-1.66475 c 1.30405,-0.91562 2.47138,-1.75299 2.59407,-1.86082 0.12268,-0.10783 -0.22725,-0.78267 -0.77761,-1.49963 -2.30855,-3.00737 -4.00961,-8.51815 -3.08179,-9.98381 0.39547,-0.6247 1.67192,0.0979 3.43091,1.9423 1.89175,1.98359 3.50889,4.23126 6.06124,8.42452 2.55272,4.19387 2.61075,4.26752 3.73197,4.73598 2.63699,1.10181 4.91398,-0.19258 4.34868,-2.47208 -0.10047,-0.40509 -1.09454,-2.69829 -2.20906,-5.09601 -1.11452,-2.39772 -1.9733,-4.41258 -1.90841,-4.47748 0.0649,-0.0649 1.16012,0.72068 2.43384,1.74572 2.1238,1.70918 2.40193,2.04712 3.35434,4.07573 1.95535,4.16487 5.86929,7.89257 10.95653,10.43516 2.37377,1.18641 2.98972,1.37976 4.75658,1.49316 2.29052,0.14699 3.8639,-0.2981 5.28711,-1.49565 1.81274,-1.52532 2.39345,-4.79505 1.2191,-6.86421 -0.57648,-1.01575 -3.68637,-3.90082 -4.20479,-3.90082 -0.13908,0 -1.0017,0.99432 -1.91694,2.20959 -0.91523,1.21528 -1.70556,2.26133 -1.75628,2.32456 -0.21558,0.26871 -1.96071,-0.82435 -3.36457,-2.1074 -2.11067,-1.92903 -3.15371,-4.06551 -3.13428,-6.42001 0.008,-1.01 0.2152,-2.28065 0.48356,-2.9703 0.43867,-1.1273 0.52911,-1.20187 1.39867,-1.15322 1.37271,0.0768 5.42304,1.50118 9.43412,3.31766 5.83402,2.64204 6.05876,2.79801 6.72798,4.66922 0.70546,1.97254 3.23998,6.80203 4.74923,9.04954 3.29089,4.90066 10.43882,13.44179 13.18079,15.74984 2.98924,2.5162 7.40596,4.52707 9.93314,4.52244 1.64045,-0.003 2.88699,-0.56428 4.16318,-1.87449 1.50851,-1.54872 3.48351,-5.36001 3.47429,-6.70456 -0.016,-2.33593 -2.44788,-6.35443 -6.28399,-10.38389 -4.52197,-4.74988 -13.10035,-11.04197 -19.29492,-14.15246 l -3.12073,-1.56702 0.14397,-1.4573 c 0.19967,-2.02109 0.83785,-2.80632 2.36318,-2.90774 1.02029,-0.0679 1.67733,0.16168 4.39223,1.53434 4.23734,2.14241 5.68536,3.09132 6.22538,4.0796 2.08473,3.81527 6.27029,8.36535 8.46684,9.20422 1.2178,0.46509 1.26873,0.46378 1.95727,-0.0503 1.29805,-0.96914 2.18866,-2.35189 2.64645,-4.10884 l 0.4536,-1.74089 -1.88106,-1.87754 c -3.54437,-3.53771 -6.98472,-10.04088 -5.31189,-10.04088 0.87196,0 6.31945,2.50259 11.55673,5.30917 l 2.97628,1.59494 0.95083,-1.4118 0.95082,-1.41181 -0.98098,-0.93758 c -2.80284,-2.67884 -8.68207,-6.90636 -11.83081,-8.50709 -2.66002,-1.35228 -3.59628,-1.27078 -6.70243,0.58338 -2.82818,1.68824 -5.00545,3.48029 -5.35936,4.41117 l -0.2341,0.61572 -1.41687,-0.95531 c -2.39915,-1.61761 -5.01866,-2.80983 -6.51237,-2.964 -1.21116,-0.125 -1.62997,-0.0276 -3.10542,0.72216 -3.51027,1.7838 -8.53841,5.79495 -8.53841,6.81145 0,0.23368 -0.12537,0.42488 -0.27861,0.42488 -0.15323,0 -2.47977,-1.12103 -5.17009,-2.49118 -7.344,-3.74021 -9.16518,-4.15033 -12.42221,-2.79744 -2.9056,1.20694 -6.65925,4.02079 -7.09082,5.31552 -0.10426,0.31277 -2.12815,-1.02756 -6.71358,-4.44609 -0.80156,-0.59758 -1.59972,-1.73707 -3.11449,-4.44643 -7.50164,-13.41757 -12.91552,-17.7485 -20.36013,-16.28745 z m 6.40033,5.59784 c 2.07733,1.64528 6.04974,6.43085 7.65157,9.21784 0.96171,1.67329 0.65324,1.49867 -2.91822,-1.65195 -3.87741,-3.42051 -7.67482,-7.73969 -7.67482,-8.72935 0,-0.40902 0.0817,-0.41289 0.96103,-0.0454 0.52856,0.22085 1.41976,0.76486 1.98044,1.20894 z m 63.16389,31.06344 c 4.30004,2.37052 9.63325,7.12605 13.9197,12.41194 4.02343,4.96155 5.63488,7.68372 4.54854,7.68372 -1.05234,0 -6.53383,-4.49463 -10.66481,-8.74477 -3.63302,-3.73783 -9.89757,-11.31339 -9.89757,-11.96889 0,-0.35645 0.70269,-0.14907 2.09414,0.618 z m 23.88532,2.66938 c -2.35121,0.71779 -4.39473,2.51649 -4.69847,4.13558 -0.18855,1.00505 0.51911,2.96421 1.30504,3.613 0.47458,0.39176 2.82752,0.23679 4.17949,-0.27529 1.71712,-0.65038 2.94807,-2.70735 2.95766,-4.94238 0.0103,-2.39612 -1.29493,-3.2785 -3.74372,-2.53091 z" id="path708" />
      <path style="fill:#ffffff;fill-opacity:1;stroke-width:0.119856" d="m 24.960147,485.27586 -2.379702,4.54012 -0.760095,1.43828 h -1.433858 -1.433858 l -0.03059,-10.75806 -0.03058,-10.75804 -7.28064,0.0309 -7.2806401,0.0309 4.79e-4,7.37117 c 1.597e-4,4.05415 0.013756,17.22954 0.029968,29.27864 l 0.029538,21.90744 1.4682402,-0.0337 1.4682456,-0.0337 0.030216,-27.7168 0.030216,-27.7168 h 4.1947223 4.194716 v 10.66722 10.66723 l 1.288461,3.1e-4 c 0.708647,1.3e-4 2.453828,0.0355 3.878179,0.0785 l 2.58972,0.0782 0.763897,-1.39692 c 0.420138,-0.7683 0.826184,-1.39717 0.826184,-1.39717 1.902864,-3.42592 1.729079,-3.36124 3.377111,-6.41207 0.89089,-1.64803 1.834351,-3.40093 2.096578,-3.89534 0.26222,-0.4944 1.385861,-2.5844 2.496974,-4.64444 l 2.020198,-3.74551 h 4.782849 4.782851 l -0.356133,0.62925 c -0.824035,1.45598 -8.77399,16.51327 -8.807949,16.68233 -0.02364,0.11773 2.237977,1.12158 2.562152,1.13726 0.103873,0.005 0.282682,-0.19146 0.400783,-0.44041 0.21205,-0.44697 1.852019,-3.50987 3.962776,-7.40113 0.607883,-1.12066 1.375845,-2.54995 1.706579,-3.1762 0.817255,-1.54747 3.256971,-6.10884 4.51673,-8.44461 0.567292,-1.05183 1.031441,-1.95562 1.031441,-2.00842 0,-0.0528 -3.706831,-0.0821 -8.237402,-0.0652 l -8.23741,0.0308 -0.611542,1.13863 c -0.784457,1.4606 -5.666954,10.62025 -6.435703,12.07351 -0.321971,0.60865 -0.62173,1.27822 -0.62173,1.27822 z m 12.030889,-10.39275 c 0,0.06 -0.207321,0.47802 -0.460711,0.92889 -0.25339,0.45087 -0.746525,1.35912 -1.095847,2.01833 -0.349328,0.65921 -0.674726,1.2525 -0.723116,1.31842 -0.04839,0.0659 -1.1533,2.11546 -2.455363,4.55455 -1.302069,2.43907 -3.057843,5.70437 -3.901724,7.2562 -0.843876,1.55183 -1.551566,2.89448 -1.572647,2.98366 -0.02935,0.1241 0.453723,0.2253 2.059168,0.43137 2.357755,0.30265 3.638392,0.58269 5.213753,1.14009 3.670208,1.29861 6.537272,3.73047 8.118621,6.88628 1.758672,3.50968 2.115664,8.85833 0.851533,12.75793 -1.632459,5.03581 -5.696627,8.27573 -11.959439,9.53399 -2.404462,0.48307 -3.576572,0.54073 -10.991716,0.54073 h -7.063862 l 0.01026,-23.94132 c 0.0055,-13.16773 0.0079,-24.49417 0.0049,-25.16986 l -0.0055,-1.22852 h -1.498207 -1.498208 v 26.72799 26.72798 h 7.702824 c 4.236554,0 8.56487,-0.0571 9.61848,-0.12703 7.518869,-0.49861 12.891891,-2.95701 16.226427,-7.42434 3.087067,-4.13577 4.077156,-10.99894 2.45521,-17.0192 -1.215015,-4.50986 -4.084936,-7.98815 -8.266627,-10.01905 -1.491975,-0.72459 -3.242331,-1.32762 -5.02351,-1.73069 -0.659214,-0.14917 -1.2152,-0.2844 -1.235532,-0.30051 -0.02033,-0.0161 0.658925,-1.3161 1.509458,-2.88887 2.806349,-5.18936 4.770242,-8.83519 5.414122,-10.05095 0.349126,-0.65921 0.951561,-1.77457 1.338737,-2.47859 0.387174,-0.70401 0.703955,-1.33776 0.703955,-1.40831 0,-0.0853 -0.583036,-0.12829 -1.737921,-0.12829 -0.964771,0 -1.737916,0.0485 -1.737916,0.10912 z m -16.570162,21.91591 -4.644435,0.0314 v 1.4968 1.4968 l 5.063936,10e-5 c 2.785163,5e-5 5.65722,0.0551 6.382356,0.12228 5.251649,0.48667 8.40963,2.12014 9.821822,5.08036 0.611838,1.28254 0.773963,1.89305 0.907489,3.41745 0.181604,2.07323 -0.154313,4.0777 -0.95567,5.70266 -1.320436,2.67752 -3.860525,4.37345 -7.556297,5.04504 -0.945279,0.17179 -1.942608,0.20877 -5.872967,0.21778 l -4.734331,0.0108 -0.03377,-1.4083 -0.03377,-1.40832 h 3.90386 c 5.310553,0 6.945136,-0.20921 8.910785,-1.1405 1.156721,-0.54804 2.387624,-1.75466 2.894127,-2.83703 0.893229,-1.90879 0.686811,-4.5918 -0.489948,-6.36839 -1.215838,-1.83558 -3.865904,-3.133 -7.240762,-3.54494 -0.624825,-0.0763 -3.184226,-0.13181 -6.082714,-0.13201 l -5.004006,-3.2e-4 v 4.07513 4.07511 h 1.55813 1.558136 v -2.59019 -2.5902 l 3.865371,0.0598 c 3.365081,0.052 4.020499,0.0933 5.063934,0.3188 2.759262,0.59624 4.093473,1.73575 4.227619,3.61068 0.08631,1.2063 -0.125863,1.83669 -0.868715,2.58098 -0.419727,0.42054 -0.832497,0.69452 -1.325054,0.87952 -1.654622,0.62147 -2.710258,0.69592 -10.155621,0.71628 l -3.92679,0.0107 0.03144,4.3448 0.03144,4.34478 6.412317,-5e-5 c 5.707846,-5e-5 6.550438,-0.0244 7.669523,-0.22194 3.292343,-0.58108 5.659388,-1.63972 7.52079,-3.36359 2.764961,-2.56067 4.094295,-6.5877 3.640812,-11.02932 -0.696815,-6.825 -5.024271,-10.18823 -13.976937,-10.86267 -0.988817,-0.0745 -1.824814,-0.14359 -1.857778,-0.15357 -0.03298,-0.01 -2.149924,-0.004 -4.704363,0.0132 z m -7.101493,1.58669 c -0.04072,0.0659 -0.01695,0.11986 0.05287,0.11986 0.06981,0 0.126931,-0.0539 0.126931,-0.11986 0,-0.0659 -0.02376,-0.11985 -0.05287,-0.11985 -0.02905,0 -0.08619,0.0539 -0.126925,0.11985 z" id="path710" sodipodi:nodetypes="ccccccccccsccccccccccscsscsscccssssssssccssccssssssssssssscsscccccssssssssssssssccccssssssscccsssssscccccccsssssscccssssssscsssss" />
      <text xml:space="preserve" style="font-style:normal;font-variant:normal;font-weight:normal;font-stretch:normal;font-size:27.8035px;font-family:'Cascadia Mono';-inkscape-font-specification:'Cascadia Mono';fill:#ffffff;fill-opacity:1;stroke-width:2.31696" x="453.39587" y="-487.04333" id="competition_name_2" transform="scale(1,-1)">
        <tspan sodipodi:role="line" id="tspan712" style="font-style:normal;font-variant:normal;font-weight:normal;font-stretch:normal;font-family:'DejaVu Sans';-inkscape-font-specification:'DejaVu Sans';stroke-width:2.31696" x="453.39587" y="-487.04333">XCM2023</tspan>
      </text>
    </g>
    <text xml:space="preserve" style="font-style:normal;font-variant:normal;font-weight:normal;font-stretch:normal;font-size:418.867px;font-family:'Cascadia Mono';-inkscape-font-specification:'Cascadia Mono';fill:#ffffff;fill-opacity:1;stroke-width:34.9058" x="272.45364" y="1186.4105" id="secondnumber_id" transform="scale(1.0057435,0.99428929)">
      <tspan sodipodi:role="line" id="tspan8912-0" style="font-style:normal;font-variant:normal;font-weight:bold;font-stretch:normal;font-family:'DejaVu Sans Mono';-inkscape-font-specification:'DejaVu Sans Mono Bold';text-align:center;text-anchor:middle;fill:#ffffff;stroke-width:34.9058" x="272.45367" y="1186.4105">888</tspan>
    </text>
  </g>
</svg>
